<svg width="128" height="128" viewBox="0 0 128 128" fill="none" xmlns="http://www.w3.org/2000/svg">
<path d="M32.7402 31.947V59.6216L47.5907 47.829V80.032L32.7402 68.2394V95.914L73.0196 63.9305L32.7402 31.947Z" fill="#100964"/>
<path d="M15 73.7041L27.3121 63.9305L15 54.1496V73.7041Z" fill="#100964"/>
<path d="M73.0561 0V27.6747L87.9067 15.882V48.085L73.0561 36.2924V63.9671L113.343 31.9835L73.0561 0Z" fill="#100964"/>
<path d="M55.3232 41.7571L67.6353 31.9835L55.3232 22.21V41.7571Z" fill="#100964"/>
<path d="M73.0561 64.0329V91.7076L87.9067 79.915V112.118L73.0561 100.325V128L113.343 96.0165L73.0561 64.0329Z" fill="#100964"/>
<path d="M55.3232 105.79L67.6353 96.0165L55.3232 86.2429V105.79Z" fill="#100964"/>
</svg>
